<?xml version="1.0" encoding="UTF-8" standalone="no"?>
<svg
   xmlns:dc="http://purl.org/dc/elements/1.1/"
   xmlns:cc="http://creativecommons.org/ns#"
   xmlns:rdf="http://www.w3.org/1999/02/22-rdf-syntax-ns#"
   xmlns:svg="http://www.w3.org/2000/svg"
   xmlns="http://www.w3.org/2000/svg"
   xmlns:sodipodi="http://sodipodi.sourceforge.net/DTD/sodipodi-0.dtd"
   xmlns:inkscape="http://www.inkscape.org/namespaces/inkscape"
   width="570pt"
   height="349pt"
   viewBox="0 0 570 349"
   version="1.1"
   id="svg2"
   inkscape:version="0.48.1 "
   sodipodi:docname="ZZ1.svg">
  <metadata
     id="metadata72">
    <rdf:RDF>
      <cc:Work
         rdf:about="">
        <dc:format>image/svg+xml</dc:format>
        <dc:type
           rdf:resource="http://purl.org/dc/dcmitype/StillImage" />
      </cc:Work>
    </rdf:RDF>
  </metadata>
  <sodipodi:namedview
     pagecolor="#ffffff"
     bordercolor="#666666"
     borderopacity="1"
     objecttolerance="10"
     gridtolerance="10"
     guidetolerance="10"
     inkscape:pageopacity="0"
     inkscape:pageshadow="2"
     inkscape:window-width="1280"
     inkscape:window-height="1004"
     id="namedview70"
     showgrid="false"
     inkscape:zoom="0.84609682"
     inkscape:cx="372.68156"
     inkscape:cy="87.400255"
     inkscape:window-x="-8"
     inkscape:window-y="-8"
     inkscape:window-maximized="1"
     inkscape:current-layer="svg2" />
  <defs
     id="defs4">
    <clipPath
       id="clip0">
      <rect
         width="570"
         height="349"
         id="rect7" />
    </clipPath>
  </defs>
  <g
     id="surface0"
     clip-path="url(#clip0)">
    <path
       style="fill: none; stroke-width: 0.1; stroke-linecap: butt; stroke-linejoin: miter; stroke: rgb(0%,0%,40.000004%); opacity: 1;stroke-miterlimit: 10;"
       d="M 0 0 L 189.994583 0 C 189.990982 9.000229 190.005569 17.999405 190.000214 26.999969 C 190.000565 35.666168 190.00708 44.332916 189.994949 52.999985 C 189.998749 62.332916 190.001007 71.665619 189.997742 81.000137 C 190.004379 89.999313 189.99852 98.998459 189.996445 108 C 190.00296 117.33223 190.002304 126.665009 189.996094 136.000137 C 189.998001 144.664261 190.009705 153.332474 189.997604 162 C 189.993103 170.997864 190.001511 179.996674 189.998535 188.998901 C 126.665131 189.002869 63.333069 188.997849 0 189 L 0 0 Z M 0 0 "
       transform="matrix(1,0,0,1,0,0)"
       id="path10" />
    <path
       style="stroke:none;fill-rule:nonzero;fill:#002868;opacity:1;fill-opacity:1"
       d="M 0 0 L 189.994583 0 C 189.990982 9.000229 190.005569 17.999405 190.000214 26.999969 C 190.000565 35.666168 190.00708 44.332916 189.994949 52.999985 C 189.998749 62.332916 190.001007 71.665619 189.997742 81.000137 C 190.004379 89.999313 189.99852 98.998459 189.996445 108 C 190.00296 117.33223 190.002304 126.665009 189.996094 136.000137 C 189.998001 144.664261 190.009705 153.332474 189.997604 162 C 189.993103 170.997864 190.001511 179.996674 189.998535 188.998901 C 126.665131 189.002869 63.333069 188.997849 0 189 L 0 0 Z M 0 0 "
       id="path12" />
    <path
       style="fill: none; stroke-width: 0.1; stroke-linecap: butt; stroke-linejoin: miter; stroke: rgb(80.000007%,0%,0%); opacity: 1;stroke-miterlimit: 10;"
       d="M 189.994583 0 L 570 0 L 570 27 C 443.332687 26.999954 316.666855 27.000015 190.000214 26.999969 C 190.005569 17.999405 189.990982 9.000229 189.994583 0 Z M 189.994583 0 "
       transform="matrix(1,0,0,1,0,0)"
       id="path14" />
    <path
       style="stroke:none;fill-rule:nonzero;fill:#bf0a22;opacity:1;fill-opacity:1"
       d="M 189.994583 0 L 570 0 L 570 27 C 443.332687 26.999954 316.666855 27.000015 190.000214 26.999969 C 190.005569 17.999405 189.990982 9.000229 189.994583 0 Z M 189.994583 0 "
       id="path16" />
    <path
       style="fill: none; stroke-width: 0.1; stroke-linecap: butt; stroke-linejoin: miter; stroke: rgb(100%,100%,100%); opacity: 1;stroke-miterlimit: 10;"
       d="M 71.013306 14.026611 C 86.674347 13.934036 102.335159 13.957092 117.997574 14.027573 C 117.99411 33.018707 117.997498 52.008942 118.013199 71.00058 C 136.662537 70.979248 155.311554 71.01207 173.962631 71.014191 C 174.06868 86.675858 174.043137 102.337402 173.971878 118.000488 C 155.317032 117.979111 136.664246 118.011719 118.011139 118.014236 C 118.010208 136.663223 117.989975 155.311905 117.985428 173.962631 C 102.32254 174.06868 86.661133 174.043137 70.999512 173.971878 C 71.01976 155.317932 70.987167 136.666046 70.985748 118.013855 C 51.998749 117.995102 33.013138 118.004532 14.026611 117.986313 C 13.934021 102.324051 13.957092 86.663391 14.027573 71.002426 C 33.017746 71.004776 52.007004 71.001434 70.997665 70.986786 C 70.99437 51.99942 70.997604 33.013474 71.013306 14.026611 Z M 71.013306 14.026611 "
       transform="matrix(1,0,0,1,0,0)"
       id="path18" />
    <path
       style="stroke: none; fill-rule: nonzero; fill: rgb(100%,100%,100%); opacity: 1;"
       d="M 71.013306 14.026611 C 86.674347 13.934036 102.335159 13.957092 117.997574 14.027573 C 117.99411 33.018707 117.997498 52.008942 118.013199 71.00058 C 136.662537 70.979248 155.311554 71.01207 173.962631 71.014191 C 174.06868 86.675858 174.043137 102.337402 173.971878 118.000488 C 155.317032 117.979111 136.664246 118.011719 118.011139 118.014236 C 118.010208 136.663223 117.989975 155.311905 117.985428 173.962631 C 102.32254 174.06868 86.661133 174.043137 70.999512 173.971878 C 71.01976 155.317932 70.987167 136.666046 70.985748 118.013855 C 51.998749 117.995102 33.013138 118.004532 14.026611 117.986313 C 13.934021 102.324051 13.957092 86.663391 14.027573 71.002426 C 33.017746 71.004776 52.007004 71.001434 70.997665 70.986786 C 70.99437 51.99942 70.997604 33.013474 71.013306 14.026611 Z M 71.013306 14.026611 "
       id="path20" />
    <path
       style="fill: none; stroke-width: 0.1; stroke-linecap: butt; stroke-linejoin: miter; stroke: rgb(100%,100%,100%); opacity: 1;stroke-miterlimit: 10;"
       d="M 190.000214 26.999969 C 316.666855 27.000015 443.332687 26.999954 570 27 L 570 53 C 443.330933 52.999939 316.663361 52.999985 189.994949 52.999985 C 190.00708 44.332916 190.000565 35.666168 190.000214 26.999969 Z M 190.000214 26.999969 "
       transform="matrix(1,0,0,1,0,0)"
       id="path22" />
    <path
       style="stroke: none; fill-rule: nonzero; fill: rgb(100%,100%,100%); opacity: 1;"
       d="M 190.000214 26.999969 C 316.666855 27.000015 443.332687 26.999954 570 27 L 570 53 C 443.330933 52.999939 316.663361 52.999985 189.994949 52.999985 C 190.00708 44.332916 190.000565 35.666168 190.000214 26.999969 Z M 190.000214 26.999969 "
       id="path24" />
    <path
       style="fill: none; stroke-width: 0.1; stroke-linecap: butt; stroke-linejoin: miter; stroke: rgb(80.000007%,0%,0%); opacity: 1;stroke-miterlimit: 10;"
       d="M 189.994949 52.999985 C 316.663361 52.999985 443.330933 52.999939 570 53 L 570 81 C 443.331863 81.000015 316.665222 80.999756 189.997742 81.000137 C 190.001007 71.665619 189.998749 62.332916 189.994949 52.999985 Z M 189.994949 52.999985 "
       transform="matrix(1,0,0,1,0,0)"
       id="path26" />
    <path
       style="stroke:none;fill-rule:nonzero;fill:#bf0a22;opacity:1;fill-opacity:1"
       d="M 189.994949 52.999985 C 316.663361 52.999985 443.330933 52.999939 570 53 L 570 81 C 443.331863 81.000015 316.665222 80.999756 189.997742 81.000137 C 190.001007 71.665619 189.998749 62.332916 189.994949 52.999985 Z M 189.994949 52.999985 "
       id="path28" />
    <path
       style="fill: none; stroke-width: 0.1; stroke-linecap: butt; stroke-linejoin: miter; stroke: rgb(100%,100%,100%); opacity: 1;stroke-miterlimit: 10;"
       d="M 189.997742 81.000137 C 316.665222 80.999756 443.331863 81.000015 570 81 L 570 108 C 443.331421 107.999908 316.664352 107.999908 189.996445 108 C 189.99852 98.998459 190.004379 89.999313 189.997742 81.000137 Z M 189.997742 81.000137 "
       transform="matrix(1,0,0,1,0,0)"
       id="path30" />
    <path
       style="stroke: none; fill-rule: nonzero; fill: rgb(100%,100%,100%); opacity: 1;"
       d="M 189.997742 81.000137 C 316.665222 80.999756 443.331863 81.000015 570 81 L 570 108 C 443.331421 107.999908 316.664352 107.999908 189.996445 108 C 189.99852 98.998459 190.004379 89.999313 189.997742 81.000137 Z M 189.997742 81.000137 "
       id="path32" />
    <path
       style="fill: none; stroke-width: 0.1; stroke-linecap: butt; stroke-linejoin: miter; stroke: rgb(80.000007%,0%,0%); opacity: 1;stroke-miterlimit: 10;"
       d="M 189.996445 108 C 316.664352 107.999908 443.331421 107.999908 570 108 L 570 136 C 443.331314 135.999969 316.664108 135.99971 189.996094 136.000137 C 190.002304 126.665009 190.00296 117.33223 189.996445 108 Z M 189.996445 108 "
       transform="matrix(1,0,0,1,0,0)"
       id="path34" />
    <path
       style="stroke:none;fill-rule:nonzero;fill:#bf0a22;opacity:1;fill-opacity:1"
       d="M 189.996445 108 C 316.664352 107.999908 443.331421 107.999908 570 108 L 570 136 C 443.331314 135.999969 316.664108 135.99971 189.996094 136.000137 C 190.002304 126.665009 190.00296 117.33223 189.996445 108 Z M 189.996445 108 "
       id="path36" />
    <path
       style="fill: none; stroke-width: 0.1; stroke-linecap: butt; stroke-linejoin: miter; stroke: rgb(100%,100%,100%); opacity: 1;stroke-miterlimit: 10;"
       d="M 189.996094 136.000137 C 316.664108 135.99971 443.331314 135.999969 570 136 L 570 162 C 443.331818 161.999847 316.665131 161.999863 189.997604 162 C 190.009705 153.332474 189.998001 144.664261 189.996094 136.000137 Z M 189.996094 136.000137 "
       transform="matrix(1,0,0,1,0,0)"
       id="path38" />
    <path
       style="stroke: none; fill-rule: nonzero; fill: rgb(100%,100%,100%); opacity: 1;"
       d="M 189.996094 136.000137 C 316.664108 135.99971 443.331314 135.999969 570 136 L 570 162 C 443.331818 161.999847 316.665131 161.999863 189.997604 162 C 190.009705 153.332474 189.998001 144.664261 189.996094 136.000137 Z M 189.996094 136.000137 "
       id="path40" />
    <path
       style="fill: none; stroke-width: 0.1; stroke-linecap: butt; stroke-linejoin: miter; stroke: rgb(80.000007%,0%,0%); opacity: 1;stroke-miterlimit: 10;"
       d="M 189.997604 162 C 316.665131 161.999863 443.331818 161.999847 570 162 L 570 189 C 443.332123 188.998657 316.665726 189.001923 189.998535 188.998901 C 190.001511 179.996674 189.993103 170.997864 189.997604 162 Z M 189.997604 162 "
       transform="matrix(1,0,0,1,0,0)"
       id="path42" />
    <path
       style="stroke:none;fill-rule:nonzero;fill:#bf0a22;opacity:1;fill-opacity:1"
       d="M 189.997604 162 C 316.665131 161.999863 443.331818 161.999847 570 162 L 570 189 C 443.332123 188.998657 316.665726 189.001923 189.998535 188.998901 C 190.001511 179.996674 189.993103 170.997864 189.997604 162 Z M 189.997604 162 "
       id="path44" />
    <path
       style="fill: none; stroke-width: 0.1; stroke-linecap: butt; stroke-linejoin: miter; stroke: rgb(100%,100%,100%); opacity: 1;stroke-miterlimit: 10;"
       d="M 0 189 C 63.333069 188.997849 126.665131 189.002869 189.998535 188.998901 C 316.665726 189.001923 443.332123 188.998657 570 189 L 570 215 C 379.999451 214.999878 190.000229 214.999878 0 215 L 0 189 Z M 0 189 "
       transform="matrix(1,0,0,1,0,0)"
       id="path46" />
    <path
       style="stroke: none; fill-rule: nonzero; fill: rgb(100%,100%,100%); opacity: 1;"
       d="M 0 189 C 63.333069 188.997849 126.665131 189.002869 189.998535 188.998901 C 316.665726 189.001923 443.332123 188.998657 570 189 L 570 215 C 379.999451 214.999878 190.000229 214.999878 0 215 L 0 189 Z M 0 189 "
       id="path48" />
    <path
       style="fill: none; stroke-width: 0.1; stroke-linecap: butt; stroke-linejoin: miter; stroke: rgb(80.000007%,0%,0%); opacity: 1;stroke-miterlimit: 10;"
       d="M 0 215 C 190.000229 214.999878 379.999451 214.999878 570 215 L 570 241 C 379.999451 240.999863 190.000229 240.999863 0 241 L 0 215 Z M 0 215 "
       transform="matrix(1,0,0,1,0,0)"
       id="path50" />
    <path
       style="stroke:none;fill-rule:nonzero;fill:#bf0a22;opacity:1;fill-opacity:1"
       d="M 0 215 C 190.000229 214.999878 379.999451 214.999878 570 215 L 570 241 C 379.999451 240.999863 190.000229 240.999863 0 241 L 0 215 Z M 0 215 "
       id="path52" />
    <path
       style="fill: none; stroke-width: 0.1; stroke-linecap: butt; stroke-linejoin: miter; stroke: rgb(100%,100%,100%); opacity: 1;stroke-miterlimit: 10;"
       d="M 0 241 C 190.000229 240.999863 379.999451 240.999863 570 241 L 570 268 C 379.999451 267.999847 190.000229 267.999847 0 268 L 0 241 Z M 0 241 "
       transform="matrix(1,0,0,1,0,0)"
       id="path54" />
    <path
       style="stroke: none; fill-rule: nonzero; fill: rgb(100%,100%,100%); opacity: 1;"
       d="M 0 241 C 190.000229 240.999863 379.999451 240.999863 570 241 L 570 268 C 379.999451 267.999847 190.000229 267.999847 0 268 L 0 241 Z M 0 241 "
       id="path56" />
    <path
       style="fill: none; stroke-width: 0.1; stroke-linecap: butt; stroke-linejoin: miter; stroke: rgb(80.000007%,0%,0%); opacity: 1;stroke-miterlimit: 10;"
       d="M 0 268 C 190.000229 267.999847 379.999451 267.999847 570 268 L 570 296 C 379.999451 295.999832 190.000229 295.999832 0 296 L 0 268 Z M 0 268 "
       transform="matrix(1,0,0,1,0,0)"
       id="path58" />
    <path
       style="stroke:none;fill-rule:nonzero;fill:#bf0a22;opacity:1;fill-opacity:1"
       d="M 0 268 C 190.000229 267.999847 379.999451 267.999847 570 268 L 570 296 C 379.999451 295.999832 190.000229 295.999832 0 296 L 0 268 Z M 0 268 "
       id="path60" />
    <path
       style="fill: none; stroke-width: 0.1; stroke-linecap: butt; stroke-linejoin: miter; stroke: rgb(100%,100%,100%); opacity: 1;stroke-miterlimit: 10;"
       d="M 0 296 C 190.000229 295.999832 379.999451 295.999832 570 296 L 570 323 C 379.999451 322.999817 190.000229 322.999817 0 323 L 0 296 Z M 0 296 "
       transform="matrix(1,0,0,1,0,0)"
       id="path62" />
    <path
       style="stroke: none; fill-rule: nonzero; fill: rgb(100%,100%,100%); opacity: 1;"
       d="M 0 296 C 190.000229 295.999832 379.999451 295.999832 570 296 L 570 323 C 379.999451 322.999817 190.000229 322.999817 0 323 L 0 296 Z M 0 296 "
       id="path64" />
    <path
       style="fill: none; stroke-width: 0.1; stroke-linecap: butt; stroke-linejoin: miter; stroke: rgb(80.000007%,0%,0%); opacity: 1;stroke-miterlimit: 10;"
       d="M 0 323 C 190.000229 322.999817 379.999451 322.999817 570 323 L 570 349 L 0 349 L 0 323 Z M 0 323 "
       transform="matrix(1,0,0,1,0,0)"
       id="path66" />
    <path
       style="stroke:none;fill-rule:nonzero;fill:#bf0a22;opacity:1;fill-opacity:1"
       d="M 0 323 C 190.000229 322.999817 379.999451 322.999817 570 323 L 570 349 L 0 349 L 0 323 Z M 0 323 "
       id="path68" />
  </g>
</svg>
