<?xml version="1.0" encoding="UTF-8" standalone="no"?>
<!-- Created with Inkscape (http://www.inkscape.org/) -->
<svg
   xmlns:svg="http://www.w3.org/2000/svg"
   xmlns="http://www.w3.org/2000/svg"
   version="1.0"
   width="900"
   height="600"
   id="svg2">
  <defs
     id="defs11" />
  <g
     id="g2629">
    <rect
       width="900"
       height="600"
       x="0"
       y="0"
       id="rect4"
       style="fill:#00209f" />
    <rect
       width="600"
       height="600"
       x="300"
       y="0"
       id="rect6"
       style="fill:#ffffff" />
    <rect
       width="300"
       height="600"
       x="600"
       y="0"
       id="rect8"
       style="fill:#f42a41" />
    <path
       d="M 447.10552,154.57941 L 442.29988,162.58423 C 439.65689,166.98761 433.2536,173.59703 428.09036,177.25976 C 422.92709,180.92245 416.70363,186.37622 414.22659,189.38133 L 409.69754,194.83226 L 414.50318,193.57433 C 417.13585,192.87874 420.56557,191.76437 422.1438,191.09665 C 423.72207,190.42894 425.01336,190.80035 425.01337,191.93529 C 425.01337,191.96567 425.01573,192.01802 425.01337,192.04963 C 425.00706,192.11359 424.99432,192.20988 424.9788,192.27834 C 424.28276,195.10193 416.03462,201.57279 409.49008,204.28556 C 403.22605,206.88207 393.93892,213.66117 392.72219,216.36902 C 392.69333,216.43615 392.67151,216.53593 392.65302,216.59773 C 392.64469,216.6282 392.62415,216.68301 392.61847,216.7121 C 392.6137,216.74069 392.62052,216.7993 392.61847,216.82643 C 392.61809,216.83535 392.61853,216.85584 392.61847,216.86456 C 392.61842,216.87205 392.6182,216.89532 392.61847,216.90269 C 392.619,216.91 392.61765,216.9336 392.61847,216.94083 C 392.61958,216.94793 392.61705,216.9719 392.61847,216.97893 C 392.62521,217.00671 392.64183,217.06689 392.65302,217.09325 C 392.66228,217.11283 392.6759,217.1508 392.68761,217.16951 C 392.69178,217.17567 392.71776,217.20159 392.72219,217.20762 C 392.7316,217.21959 392.74629,217.23416 392.75676,217.24574 C 392.76226,217.25146 392.78558,217.27825 392.79134,217.28388 C 392.81535,217.30598 392.86698,217.33948 392.89503,217.36012 C 393.62855,217.87232 395.64725,217.95017 397.9773,217.43636 C 402.06434,216.53508 403.74921,217.09451 405.09933,219.87591 C 407.16454,224.13049 405.98076,226.05108 401.22715,226.05106 C 395.47806,226.05106 387.29452,231.82466 386.1879,236.68607 C 385.44588,239.94556 382.30936,242.60398 375.57398,245.68194 C 364.57755,250.70708 350.38675,260.30144 349.40221,263.25444 C 349.37735,263.33661 349.3708,263.45008 349.36765,263.52128 C 349.36765,267.70718 358.62955,267.41531 372.04752,262.79701 C 375.05591,261.76155 376.3821,262.81598 378.65096,267.98109 C 381.4596,274.37493 381.41521,274.53152 374.88252,282.96155 C 370.3205,288.84858 366.30948,291.88447 361.95221,292.79606 C 353.27099,294.6122 350.57279,296.37536 339.30692,307.62406 C 333.91542,313.00723 328.50352,317.46192 327.27549,317.49668 C 326.79401,317.51028 326.47416,317.58323 326.30746,317.72536 C 326.30203,317.73042 326.27794,317.7583 326.27288,317.7635 C 326.26815,317.76877 326.24269,317.7962 326.2383,317.80159 C 326.23457,317.80726 326.20713,317.83395 326.20374,317.83973 C 326.20066,317.84563 326.20646,317.87182 326.20374,317.87787 C 326.2013,317.884 326.17124,317.90967 326.16916,317.91598 C 326.16736,317.92237 326.17063,317.94754 326.16916,317.95408 C 326.16802,317.96073 326.16998,317.98545 326.16916,317.99221 C 326.16863,317.99906 326.16937,318.02334 326.16916,318.03034 C 326.16935,318.04446 326.16777,318.09197 326.16916,318.10655 C 326.17014,318.11393 326.16786,318.13717 326.16916,318.14468 C 326.1755,318.17506 326.19275,318.22703 326.20374,318.25902 C 326.20982,318.27524 326.23111,318.31871 326.2383,318.33526 C 326.24603,318.35201 326.26402,318.39439 326.27288,318.4115 C 327.17909,320.07862 333.12605,323.36687 336.47189,323.36687 C 338.92051,323.36687 344.88778,320.56773 349.71337,317.15361 C 358.182,311.16209 358.60078,311.07234 362.02136,314.48533 C 363.97046,316.43013 365.58239,320.20039 365.58239,322.83321 C 365.58239,326.84635 363.42579,328.6806 352.30634,334.34493 C 344.07919,338.53587 334.41731,345.7393 326.86064,353.28968 C 316.7043,363.43754 313.82292,365.30953 309.50498,364.61078 C 306.77879,364.16963 305.25444,363.98557 304.76847,364.26772 C 304.75292,364.27804 304.71243,364.2943 304.6993,364.30583 C 304.69337,364.31192 304.67012,364.33756 304.66474,364.34393 C 304.65998,364.35063 304.63433,364.37508 304.6302,364.38208 C 304.61231,364.41867 304.59879,364.48982 304.5956,364.53455 C 304.59257,365.05404 305.50964,366.1141 307.15399,367.92705 C 308.71098,369.64372 312.32442,371.05279 315.17494,371.05277 C 322.95142,371.05277 347.53343,361.89062 355.10675,356.18664 C 362.13797,350.89099 368.9738,349.8697 374.64051,353.21343 C 383.40738,358.38645 368.74766,368.80319 341.13929,377.03734 C 330.98297,380.0664 322.18253,383.0143 321.05232,383.74613 C 321.036,383.75743 320.99548,383.77411 320.98321,383.78423 C 320.97811,383.78902 320.95266,383.81791 320.94862,383.82236 C 320.94485,383.82712 320.91768,383.85553 320.91406,383.86049 C 320.91056,383.86556 320.91743,383.8934 320.91406,383.89858 C 320.5188,384.55306 321.10243,386.27594 322.29698,387.86288 C 325.17966,391.69247 339.68602,391.87725 352.06433,388.20598 C 357.01837,386.73665 369.35596,381.74513 379.48073,377.15167 C 397.84518,368.82002 397.91329,368.83455 404.33872,372.1963 C 419.26856,380.00748 417.88917,393.67584 399.94794,416.14662 C 392.13471,425.93246 385.20251,430.29719 372.6007,433.37603 C 367.93849,434.51509 358.35661,443.54333 358.35661,446.79367 C 358.35661,447.11449 358.41915,447.36771 358.49491,447.59412 L 361.71021,447.59412 C 362.41639,447.07825 363.13744,446.33483 363.85373,445.38327 C 367.82613,440.10602 375.83747,436.58546 383.94063,436.53987 C 392.74536,436.49028 403.5317,431.65538 411.6336,424.11332 C 418.75163,417.48716 425.90195,415.51199 431.30566,418.70053 C 434.29931,420.46697 437.02294,420.64322 440.64036,419.27229 C 447.07305,416.83453 450.25164,418.01285 450.25165,422.8173 C 450.25165,424.97787 452.5156,427.8759 455.61049,429.64046 C 458.56955,431.32756 463.84952,435.45695 467.33073,438.82694 C 469.98209,441.39358 471.91399,442.56578 472.93156,442.56253 C 472.97038,442.56149 473.03373,442.56717 473.06983,442.56253 C 473.09641,442.5584 473.14855,442.5687 473.17356,442.56253 C 473.18991,442.55795 473.22705,442.52986 473.2427,442.52445 C 473.25799,442.51854 473.29728,442.49307 473.31185,442.4863 C 473.35459,442.46461 473.41374,442.43964 473.45013,442.41004 C 473.45605,442.40491 473.47898,442.37731 473.48473,442.37195 C 473.49025,442.36636 473.51393,442.33965 473.5193,442.33382 C 473.52446,442.32781 473.54885,442.30193 473.55387,442.2957 C 473.55868,442.28925 473.58378,442.26425 473.58845,442.25758 C 473.60183,442.2369 473.61124,442.20399 473.62302,442.18134 C 473.63052,442.16582 473.65083,442.1215 473.65758,442.10511 C 473.66398,442.0883 473.68649,442.04656 473.69216,442.02886 C 473.70014,442.00175 473.7204,441.9436 473.72672,441.91452 C 473.73443,441.87491 473.72196,441.80502 473.72672,441.76206 C 473.83007,440.63354 472.95578,438.36216 470.9263,435.1676 C 469.73349,433.29002 469.12602,431.41861 469.3014,430.47907 C 469.31076,430.43389 469.32269,430.36712 469.33596,430.3266 C 469.34157,430.31075 469.3643,430.26543 469.37054,430.25036 C 469.37382,430.24302 469.36709,430.21935 469.37054,430.21223 C 469.37413,430.2053 469.40134,430.18086 469.40512,430.17411 C 469.42473,430.14142 469.45056,430.08725 469.47425,430.05975 C 469.47916,430.05447 469.50376,430.0267 469.50881,430.02165 C 469.5245,430.00708 469.56081,429.99611 469.57796,429.98351 C 469.58386,429.97955 469.606,429.9493 469.61254,429.94539 C 469.62694,429.93779 469.66471,429.91452 469.68168,429.90727 C 470.8049,429.47286 476.75692,429.69435 483.26887,430.44094 C 494.72359,431.75416 496.11208,432.44269 502.87176,440.27544 C 506.20996,444.14352 508.9492,446.57353 511.16929,447.59412 L 515.7675,447.59412 C 516.74779,447.1527 517.43935,446.51323 517.59986,445.87881 C 517.60383,445.86167 517.63127,445.81972 517.63442,445.80257 C 517.63859,445.77684 517.63212,445.71396 517.63442,445.68822 C 517.63556,445.67108 517.63411,445.6291 517.63442,445.61201 C 517.63432,445.5949 517.63536,445.55285 517.63442,445.53576 C 517.6341,445.53148 517.63499,445.50206 517.63442,445.49762 C 517.63296,445.48843 517.63679,445.46938 517.63442,445.45952 C 517.24073,444.14401 510.45797,437.69111 502.3186,430.89836 C 483.81993,415.46024 480.98355,409.81855 480.91791,388.43467 C 480.87867,375.64631 481.48567,372.37082 484.47893,369.07059 C 489.14179,363.9296 491.70307,364.05385 503.14836,370.02354 C 511.79164,374.53178 514.47684,374.90826 534.12576,374.4834 C 555.22752,374.02712 555.84508,374.1589 566.45152,380.39172 C 572.39639,383.88516 579.65925,388.56348 582.6317,390.79801 C 589.19353,395.73081 595.85662,396.07796 597.42893,391.56037 C 599.28579,386.22526 586.81147,375.8773 563.37451,363.391 C 540.06843,350.97438 537.62723,347.50234 548.36984,341.85418 C 554.48002,338.64171 554.90326,338.70261 564.58457,344.10317 C 572.34526,348.43234 575.89463,349.36305 580.86846,348.33432 L 587.22992,347.00016 L 573.22781,335.52657 C 565.52889,329.21764 558.08144,322.52493 556.66736,320.62238 C 552.57862,315.12117 544.6704,311.47402 536.89161,311.47398 C 533.24652,311.47398 529.84146,310.77526 528.90524,309.91114 C 528.87494,309.88173 528.826,309.82658 528.80151,309.79678 C 528.79575,309.78932 528.77234,309.76617 528.76694,309.75869 C 528.75695,309.74361 528.74087,309.69756 528.73238,309.68244 C 526.54457,305.77946 533.13311,303.92612 551.51598,303.20232 C 576.28166,302.22725 579.68866,299.34151 562.61391,293.82527 C 555.79579,291.62258 545.57935,288.83504 539.89944,287.61197 C 532.97394,286.12067 529.13478,284.49485 528.1792,282.61849 C 528.0744,282.40463 528.00288,282.15393 527.9718,281.93236 C 527.95171,281.7688 527.95218,281.56674 527.9718,281.39872 C 528.05656,280.7614 528.43513,280.08735 529.07811,279.37845 C 530.24115,278.09613 535.7979,278.23916 545.25827,279.83586 C 555.86294,281.62575 561.66773,282.02666 562.71763,280.78884 C 563.80993,279.3654 558.9226,275.82136 548.12782,269.8489 C 538.29271,264.40737 525.8804,255.60118 520.22742,250.02742 C 514.62545,244.50395 506.30416,238.22117 501.76544,236.07615 C 495.77493,233.24501 493.835,231.32396 494.60881,229.10052 C 495.95878,225.22193 505.38502,225.1825 511.48046,229.02429 C 513.95747,230.58547 520.44794,231.84522 525.89738,231.80691 L 535.81986,231.73065 L 529.25097,229.06241 C 522.68991,226.40139 504.84248,213.70709 503.4595,210.8419 C 503.43412,210.78529 503.40182,210.69957 503.39037,210.65131 C 503.3869,210.63268 503.39152,210.5923 503.39037,210.57508 C 503.39037,210.56986 503.38982,210.5421 503.39037,210.53696 C 503.39145,210.53183 503.38875,210.5039 503.39037,210.49885 C 503.39303,210.49386 503.42173,210.46565 503.42493,210.4607 C 503.4324,210.45095 503.44998,210.43215 503.4595,210.42257 C 503.4648,210.41785 503.4883,210.38919 503.4941,210.38448 C 504.22409,209.84532 508.33968,209.61492 513.27826,209.88896 L 523.2007,210.4607 L 508.92204,199.44456 C 498.44625,191.37255 491.99059,187.89792 484.61721,186.33189 C 479.0917,185.15831 472.75715,183.76328 470.54601,183.24431 C 464.62426,181.8544 454.6795,171.48951 450.63196,162.4699 L 447.10552,154.57941 z M 414.57233,210.15576 C 414.78831,210.14789 415.02498,210.15576 415.26378,210.15576 C 417.10469,210.15576 418.44255,210.60457 418.99766,211.29932 C 419.01016,211.31559 419.05519,211.35897 419.0668,211.37555 C 419.07803,211.39228 419.09106,211.43478 419.10139,211.45178 C 419.1608,211.55458 419.21243,211.68269 419.23968,211.79483 C 419.24581,211.82308 419.27019,211.88044 419.27426,211.9092 C 419.27875,211.9478 419.27354,212.02211 419.27426,212.06169 C 419.27408,212.09152 419.27657,212.1457 419.27426,212.17602 C 419.26918,212.22684 419.25082,212.31445 419.23968,212.36659 C 419.23225,212.39804 419.21473,212.44909 419.20511,212.48098 C 418.82052,213.75301 416.74734,216.07279 414.57233,217.66507 C 412.90956,218.88228 411.91718,219.54471 411.35704,219.4566 C 411.31873,219.44861 411.25321,219.43384 411.21875,219.41851 C 411.20195,219.40986 411.16546,219.39085 411.1496,219.38039 C 411.11876,219.35757 411.07324,219.29645 411.04588,219.266 C 410.6676,218.80528 410.59642,217.56764 410.59642,215.37795 C 410.59642,211.36956 411.33255,210.27382 414.57233,210.15576 z M 462.73251,215.11114 C 462.77597,215.11052 462.79233,215.11114 462.83623,215.11114 C 465.64621,215.11114 467.53551,216.42532 467.91848,218.618 C 468.39283,221.33373 467.2652,222.08679 462.83623,222.08676 C 460.34495,222.08676 458.90229,221.82759 458.20344,221.13382 C 457.68526,220.59419 457.58476,219.78492 457.78857,218.618 C 458.16558,216.45956 459.99553,215.1505 462.73251,215.11114 z M 448.62674,216.29281 C 451.0686,216.10273 452.04946,217.54737 452.04946,220.63826 C 452.04946,224.35874 450.62653,225.51843 443.92481,227.23272 C 439.69733,228.31412 435.82096,228.8111 435.00497,228.41442 C 434.98599,228.40418 434.951,228.38759 434.93583,228.37628 C 434.9312,228.37237 434.90545,228.34219 434.90125,228.33813 C 432.58119,225.7802 434.61474,222.49743 440.39835,219.4566 C 444.11882,217.50053 446.78699,216.43602 448.62674,216.29281 z M 481.0908,216.33093 C 484.66854,216.21269 485.12056,217.9032 483.37258,222.92537 C 482.77118,224.65335 480.28086,226.05108 477.84092,226.05106 C 474.2708,226.05106 473.50547,225.18767 473.96873,221.59123 C 474.38092,218.39144 475.95329,216.93338 479.50041,216.4834 C 480.08824,216.40882 480.61585,216.34662 481.0908,216.33093 z M 426.32714,226.05106 C 426.45024,226.04047 426.59072,226.05106 426.70745,226.05106 C 431.04686,226.05106 428.3406,234.23468 422.76612,237.98207 C 417.80205,241.31908 412.5263,242.75145 411.04588,241.45085 C 411.03919,241.44469 411.01782,241.41897 411.01131,241.41271 C 410.91587,241.31711 410.82629,241.19201 410.7693,241.06965 C 410.76205,241.05309 410.74125,241.01044 410.73471,240.9934 C 410.72548,240.96751 410.70776,240.90604 410.70017,240.87905 C 410.69544,240.86079 410.66956,240.82156 410.66557,240.80283 C 410.66019,240.77435 410.66929,240.71801 410.66557,240.68846 C 410.6603,240.63857 410.63149,240.55084 410.63101,240.49786 C 410.63112,240.48713 410.63073,240.4706 410.63101,240.45975 C 410.75119,235.98977 421.19936,226.49264 426.32714,226.05106 z M 467.08871,244.99584 C 469.15597,244.74625 470.46662,247.01322 469.75085,251.17098 C 469.35229,253.48606 467.28571,255.08367 464.18459,255.47832 C 461.81453,255.77993 460.35366,255.67412 459.79383,255.02089 C 459.7886,255.01453 459.76429,254.98929 459.75925,254.98279 C 459.7348,254.9498 459.71043,254.90402 459.69008,254.86842 C 459.68229,254.85398 459.66265,254.80707 459.6555,254.79221 C 459.65212,254.78466 459.62418,254.76172 459.62094,254.75408 C 459.60556,254.71531 459.59766,254.64306 459.58637,254.60162 C 459.30993,253.492 460.44821,251.42874 462.97452,248.08339 C 464.43647,246.1475 465.88919,245.14061 467.08871,244.99584 z M 450.87395,245.91064 C 450.97441,245.90288 451.06535,245.91064 451.15056,245.91064 C 455.30264,245.91064 455.97437,249.56692 452.22233,251.78085 C 450.49071,252.80262 448.80859,253.56594 448.24643,253.64865 C 448.22805,253.65069 448.19287,253.68651 448.17728,253.68677 C 448.16311,253.68614 448.11941,253.65113 448.10813,253.64865 C 447.7953,253.53976 445.50294,252.80165 443.02591,251.97146 L 438.53142,250.44673 L 443.61364,248.15962 C 446.22852,246.99181 449.36724,246.02717 450.87395,245.91064 z M 485.82727,250.48485 C 487.7896,250.38077 489.91353,250.76163 491.98126,251.62838 C 495.7338,253.2014 496.46322,254.56515 495.74973,258.68026 C 494.78085,264.26835 491.72958,264.8962 481.29822,261.57725 C 476.17383,259.94678 475.64679,259.16382 477.28774,255.78326 C 478.85326,252.55811 482.081,250.6835 485.82727,250.48485 z M 408.45289,251.85707 C 408.57053,251.85586 408.67786,251.85707 408.79864,251.85707 C 416.38943,251.85707 417.43663,253.17669 413.74259,258.03226 C 412.50404,259.66016 410.15228,262.13881 408.48747,263.52128 C 405.94326,265.63395 405.16332,265.40975 403.54355,262.07277 C 401.6155,258.1008 401.01406,255.48784 401.95319,253.91549 C 402.82071,252.51179 404.95318,251.89351 408.45289,251.85707 z M 388.4697,255.2115 C 391.70726,255.12374 393.70227,256.65263 396.2832,261.08172 L 399.91338,267.33307 L 394.48541,269.42957 C 389.53133,271.33369 388.69755,270.97456 384.59751,265.19849 C 382.01328,261.55779 381.02479,259.14321 381.72799,257.61296 C 381.79271,257.47804 381.87811,257.31545 381.97,257.19363 C 381.99353,257.16346 382.04847,257.10869 382.0737,257.07928 C 382.09952,257.05016 382.14989,256.99329 382.17742,256.96491 C 383.10451,256.0379 384.97015,255.53435 387.81282,255.28776 C 388.04054,255.26796 388.25386,255.21735 388.4697,255.2115 z M 508.02317,273.92755 C 511.61982,273.63675 515.29173,276.17029 514.76488,280.25515 C 514.09569,285.44373 508.42828,286.94522 503.77066,283.19027 C 500.98912,280.94777 500.88654,280.11667 503.04465,276.86264 C 504.2808,274.99876 506.1392,274.07983 508.02317,273.92755 z M 440.15634,283.6477 C 440.28868,283.63924 440.43253,283.6477 440.57124,283.6477 C 440.87519,283.6477 441.15765,283.71203 441.40098,283.80015 C 441.55404,283.85875 441.72232,283.93536 441.85043,284.02885 C 441.8865,284.05629 441.95467,284.11298 441.98872,284.14323 C 442.0055,284.15869 442.04161,284.20328 442.05786,284.21947 C 442.07384,284.23598 442.11153,284.27845 442.127,284.29571 C 442.14222,284.31325 442.18144,284.35367 442.19614,284.37195 C 442.74482,285.07916 442.93689,286.29046 442.71474,287.95505 C 442.00102,293.30291 438.4596,294.87204 436.94106,290.50897 C 435.58522,286.61343 436.90136,283.85581 440.15634,283.6477 z M 417.47645,287.76444 C 419.00034,287.55763 421.50343,288.57069 424.01074,290.66145 C 425.71468,292.08225 426.42071,293.46104 426.3963,294.47328 C 426.39248,294.56669 426.37775,294.6909 426.3617,294.77821 C 426.35077,294.83229 426.3427,294.91727 426.32714,294.96879 C 426.31399,295.0096 426.27402,295.08215 426.25799,295.12126 C 426.23288,295.17928 426.18564,295.25787 426.1543,295.31188 C 426.14348,295.32963 426.13118,295.37077 426.11972,295.38812 C 426.10789,295.40518 426.06304,295.44772 426.05057,295.46435 C 425.99293,295.53799 425.91375,295.62942 425.84311,295.69303 C 425.8271,295.70692 425.79061,295.75591 425.77396,295.76926 C 424.73228,296.57551 422.52519,296.38497 420.00028,294.43513 C 417.9139,292.82395 416.18148,290.71759 416.02439,289.63223 C 416.0222,289.61474 416.02567,289.57298 416.02439,289.55601 C 416.02351,289.53932 416.02439,289.49589 416.02439,289.47976 C 416.02439,288.44626 416.56211,287.88854 417.47645,287.76444 z M 453.53611,288.5268 C 454.2398,288.46594 454.97012,289.15495 456.19821,290.50897 C 457.73949,292.20825 459.54992,295.46306 460.2087,297.75141 C 461.79149,303.2499 459.29068,305.54683 454.40041,303.04986 C 449.14993,300.36894 447.8731,296.12572 450.90854,291.34755 C 452.06727,289.52364 452.78699,288.59163 453.53611,288.5268 z M 466.12068,295.99799 C 467.45545,295.8157 469.26666,297.81328 469.71626,301.18206 C 469.97845,303.14668 469.70572,304.82133 469.09395,305.33694 C 469.08811,305.34159 469.06526,305.37063 469.05938,305.37504 C 469.04152,305.38781 469.00859,305.40234 468.99022,305.4132 C 468.96551,305.42676 468.9121,305.44123 468.88651,305.4513 C 468.88004,305.4536 468.85846,305.48738 468.85193,305.48944 C 468.84538,305.49127 468.82398,305.48781 468.81737,305.48944 C 468.80402,305.49222 468.76178,305.48756 468.7482,305.48944 C 468.74136,305.49011 468.72053,305.48896 468.71366,305.48944 C 468.70671,305.48965 468.68606,305.48944 468.67906,305.48944 C 466.10648,305.48944 464.63402,303.1697 464.63402,299.04744 C 464.63402,297.07553 465.29275,296.11103 466.12068,295.99799 z M 387.0868,303.92658 C 389.73413,303.9238 392.05709,304.06765 393.58651,304.38401 C 396.11109,304.90617 397.7903,305.62733 398.59962,306.48052 C 398.77063,306.66634 398.92402,306.88978 399.01447,307.09039 C 399.05747,307.1911 399.09533,307.32911 399.11818,307.43345 C 399.15944,307.64293 399.15749,307.89584 399.11818,308.11958 C 398.81668,309.66633 396.59661,311.5532 392.48018,313.72295 C 389.06631,315.52238 383.29019,317.59834 379.61902,318.29712 C 373.5233,319.45748 372.68741,319.02713 370.146,313.60858 C 368.63938,310.39627 367.41847,307.33963 367.38019,306.74733 C 367.38019,306.74001 367.37955,306.7165 367.38019,306.7092 C 367.38258,306.6946 367.37537,306.64756 367.38019,306.63296 C 367.38316,306.62569 367.41118,306.60213 367.41475,306.59484 C 367.42305,306.5803 367.43871,306.53313 367.44933,306.51862 C 367.45519,306.51136 367.47746,306.48776 367.4839,306.48052 C 368.7579,305.16209 379.31554,303.93473 387.0868,303.92658 z M 509.68265,321.7659 C 516.78142,321.45215 520.61163,326.25334 512.89796,332.21027 C 507.93549,336.04255 500.64878,336.19636 496.13005,332.55334 C 492.87877,329.93219 493.04451,329.55711 498.965,325.57773 C 502.70853,323.0616 506.51426,321.90593 509.68265,321.7659 z M 535.54325,327.36927 C 535.66901,327.35386 535.80968,327.36971 535.92358,327.36927 C 536.97269,327.36518 539.39367,328.60132 541.31694,330.15192 C 544.74268,332.91375 544.73102,333.09733 540.45265,338.11861 C 538.23823,340.71745 535.98086,342.75534 535.1975,342.9215 C 535.1911,342.92263 535.16917,342.92065 535.16296,342.9215 C 535.15694,342.9221 535.13415,342.92121 535.12838,342.9215 C 535.12283,342.92157 535.09916,342.92175 535.0938,342.9215 C 535.08867,342.92099 535.06412,342.9223 535.05924,342.9215 C 534.48882,342.74669 531.36477,342.25665 528.14463,341.81608 C 524.56235,341.32595 522.30179,339.88239 522.3018,338.11861 C 522.3018,338.04025 522.32178,337.93738 522.33637,337.85179 C 522.90577,334.88295 531.77087,327.83174 535.54325,327.36927 z M 405.51421,335.29787 C 405.84344,335.27942 406.23635,335.29787 406.65511,335.29787 C 411.53613,335.29787 414.22659,339.31548 414.22659,346.61899 C 414.22659,356.43254 408.24319,355.64515 405.47961,345.47544 C 403.07355,336.62121 402.83321,335.44814 405.51421,335.29787 z M 442.68016,338.08051 C 445.6229,337.98711 452.74497,339.62934 453.67439,340.74878 C 453.67869,340.75432 453.70496,340.78138 453.70895,340.78692 C 453.71234,340.79235 453.74049,340.81958 453.74353,340.825 C 453.74626,340.83043 453.7411,340.85774 453.74353,340.86312 C 453.74564,340.86848 453.77636,340.89589 453.77812,340.90125 C 453.7792,340.90652 453.77734,340.93415 453.77812,340.93936 C 453.77853,340.94457 453.77802,340.97232 453.77812,340.97748 C 453.77784,340.98291 453.77861,341.00988 453.77812,341.01561 C 453.68508,341.77449 451.78013,344.86729 449.49105,347.95311 L 445.27315,353.63273 L 443.06048,346.31403 C 441.96796,342.66426 441.29553,339.37641 441.43554,338.53793 C 441.43688,338.53104 441.4341,338.5063 441.43554,338.49979 C 441.4387,338.48755 441.46648,338.47243 441.47009,338.46166 C 441.47207,338.45667 441.46805,338.42819 441.47009,338.42356 C 441.47451,338.41509 441.49979,338.39239 441.50469,338.38541 C 441.51333,338.37688 441.52941,338.35548 441.53926,338.34732 C 441.54448,338.34336 441.56831,338.31307 441.57384,338.30921 C 441.57968,338.30544 441.60228,338.31287 441.60842,338.30921 C 441.61483,338.30564 441.6363,338.27455 441.64298,338.27109 C 441.65698,338.26439 441.69699,338.23927 441.71212,338.23298 C 441.93173,338.14774 442.27023,338.09351 442.68016,338.08051 z M 424.59849,341.32053 C 425.13158,341.26778 425.96646,341.40598 427.12232,341.58736 C 429.43928,341.95099 431.57229,343.87649 431.92798,345.93284 C 432.35971,348.42898 432.11999,350.17143 431.51308,351.07885 C 431.46522,351.14795 431.39258,351.24842 431.34023,351.30753 C 431.2797,351.37345 431.19878,351.44534 431.13279,351.4981 C 431.10782,351.51725 431.05478,351.55705 431.02909,351.57437 C 430.90799,351.65218 430.74961,351.72799 430.6142,351.76493 C 430.55576,351.77951 430.46753,351.79606 430.40676,351.80308 C 430.30483,351.81262 430.16877,351.8147 430.06101,351.80308 C 428.85896,351.65026 427.30329,350.15903 425.94684,347.26698 C 424.3834,343.93364 423.6656,342.35352 423.94161,341.70172 C 423.96408,341.65579 424.01188,341.58561 424.04532,341.54927 C 424.16652,341.43189 424.34675,341.34546 424.59849,341.32053 z"
       id="path2386"
       style="fill:#009e3f;fill-opacity:1;stroke:none" />
  </g>
</svg>
