<?xml version="1.0" standalone="no"?>
<svg height="600" width="530" viewBox="0 0 530 600" xmlns="http://www.w3.org/2000/svg" xmlns:xlink="http://www.w3.org/1999/xlink">
<title>Palestine flag map (West Bank and Gaza)</title>
<defs><path id="Outline" d="M262.907,502.698
C262.907,502.698,259.219,510.07,262.907,515.141
C266.592,520.209,277.656,533.574,277.656,533.574
L280.881,535.418L281.422,535.447
C292.585,529.485,288.939,526.373,315.573,526.373
C337.765,526.373,335.299,527.498,340.23,527.498
C352.757,527.498,373.047,522.055,373.047,522.055
C401.388,521.362,408.3,504.772,411.066,503.391
C413.831,502.007,448.804,476.458,448.804,476.458
C449.698,464.239,450.773,462.761,451.849,458.458
C453.103,453.438,456.495,447.991,456.495,437.17
C456.495,432.098,455.75,425.846,453.691,417.905
C472.79,376.977,486.22,337.832,502.542,345.09
L506.229,335.874V311.911
C506.229,305.461,501.62,287.949,501.62,287.949
C502.905,280.891,504.635,269.812,504.635,261.244
C504.635,251.372,501.621,251.372,501.621,236.566
C501.621,230.575,502.083,224.353,502.546,219.745
C503.466,210.529,516.371,164.443,518.212,156.147
C520.045,147.851,514.516,114.67,513.597,107.296
C512.675,99.9216,510.829,89.7839,513.597,79.6462
C513.597,79.6462,504.376,78.2646,494.701,74.8086
C485.023,71.3523,478.802,71.3523,470.508,74.8086
C462.211,78.2646,461.523,58.9092,461.523,58.9092
C461.523,58.9092,462.904,47.1567,458.064,34.7136
C455.288,27.5763,450.012,25.4426,443.277,25.4426
C438.27,25.4426,432.457,26.6218,426.265,27.801
C411.75,30.5667,406.91,25.0356,404.837,23.6519
C402.765,22.2703,391.013,11.2087,391.013,11.2087
V10.0977L390.553,10.0581L386.866,10.9778L376.266,21.5796
C376.266,21.5796,355.989,36.7859,353.685,38.6316
C351.382,40.4753,338.017,47.8499,334.332,51.5369
C331.002,54.8654,328.949,57.7416,328.669,58.1611
C329.875,60.8186,327.864,66.1934,326.729,67.896
C325.347,69.9685,321.891,94.855,319.125,95.5481
C316.362,96.2388,308.064,111.447,308.755,115.594
C309.448,119.741,312.904,134.259,312.211,137.713
C312.211,137.713,310.827,150.847,303.917,156.378
C297.002,161.906,288.71,169.512,293.546,176.424
C298.384,183.339,303.224,209.605,302.533,213.754
C301.281,221.249,309.026,244.423,304.605,251.079
C304.605,251.079,297.691,269.051,301.149,273.2
C301.149,273.2,314.423,286.029,314.423,296.115
C314.423,298.637,313.594,300.987,311.52,302.922
C311.52,302.922,288.018,308.453,290.09,313.293
C292.162,318.131,288.018,329.881,296.312,329.881
C299.077,329.881,302.303,330.265,305.657,330.265
C312.364,330.265,319.584,328.729,324.654,319.515
C324.654,319.515,328.803,310.528,337.786,319.515
C337.786,319.515,351.613,325.043,357.144,326.425
C362.672,327.809,384.105,332.646,384.105,332.646
C384.105,332.646,393.092,334.721,392.399,342.324
C391.708,349.929,392.399,360.989,384.105,361.68
L371.21,362.769
C366.184,364.507,352.429,369.307,350.927,370.436
C349.081,371.817,324.199,388.407,324.199,388.407
C324.199,388.407,302.078,402.694,300.232,405.458
C298.39,408.223,284.106,435.873,284.106,440.022
C284.106,444.171,282.722,466.75,278.577,473.662
C274.428,480.577,262.907,502.698,262.907,502.698Z
M10.6257,538.94L26.9033,589.591L36.1648,582.881
C36.2739,582.873,36.3638,582.703,37.2954,582.364
C38.5613,581.455,42.6299,578.074,53.6748,568.37
C76.4854,548.321,68.1909,549.014,70.2637,543.483
C72.3362,537.95,68.1909,529.658,68.1909,523.437
C68.1909,517.215,106.21,484.035,106.21,484.035
C110.359,480.579,130.404,469.519,135.242,468.826
C141.13,467.983,140.423,458.425,144.47,455.191
L145.382,451.085L117.264,425.273L109.897,436.337
L84.0896,466.75
C84.0896,466.75,42.8948,509.907,10.6257,538.94Z"/>
<clipPath id="clip1"><use xlink:href="#Outline"/></clipPath></defs>
<g clip-path="url(#clip1)"><g transform="translate(12.96,-2)">
<rect width="1200" height="200"/>
<rect y="200" fill="#FFFFFF" width="1200" height="200"/>
<rect y="400" fill="#007A3D" width="1200" height="200"/>
<path fill="#CE1126" d="M0,0l400,300L0,600Z"/></g></g>
<use fill="none" stroke-width="4" stroke-linejoin="round" stroke="#000000" xlink:href="#Outline"/>
</svg>
